# xmcd CD database file
#
# Track frame offsets:
#	150
#	23779
#	42839
#	60167
#	77508
#	98508
#	127283
#	146407
#	171753
#	201097
#	222460
#	239711
#	264421
#	292231
#
# Disc length: 4113 seconds
#
# Revision: 0
# Processed by: cddbd v1.5.2PL0 Copyright (c) Steve Scherf et al.
# Submitted via: CDex 1.70beta2
#
DISCID=cc100f0e
DTITLE=Mario Adnet and Philippe Baden Powell - Afro Samba Jazz
DYEAR=2009
DGENRE=Jazz
TTITLE0=01 Canto de Xangô
TTITLE1=02 Ritmo Afro
TTITLE2=03 Caxangá de Oxalá
TTITLE3=04 Nhem Nhem Nhem
TTITLE4=05 Lamento de Exú
TTITLE5=06 Canto de Ossanha
TTITLE6=07 Lamento de Preto Velho
TTITLE7=08 Sermão
TTITLE8=09 Canto de Yemanjá
TTITLE9=10 Pai
TTITLE10=11 Alodê
TTITLE11=12 Berimbau
TTITLE12=13 Suite Yansan
TTITLE13=14 Domingo de Ramos
EXTD=YEAR: 2009
EXTT0=
EXTT1=
EXTT2=
EXTT3=
EXTT4=
EXTT5=
EXTT6=
EXTT7=
EXTT8=
EXTT9=
EXTT10=
EXTT11=
EXTT12=
EXTT13=
PLAYORDER=
